<svg width="200" height="80" viewBox="0 0 200 80" fill="none" xmlns="http://www.w3.org/2000/svg">
  <path d="M30 20C30 20 35 15 45 15C50 15 52 17 52 20V35H60L70 40V50H68C68 55 64 58 60 58C56 58 52 55 52 50H38C38 55 34 58 30 58C26 58 22 55 22 50H20V30C20 25 25 20 30 20Z" fill="#1A2332"/>
  <circle cx="30" cy="50" r="4" fill="#E53935"/>
  <circle cx="60" cy="50" r="4" fill="#E53935"/>
  <path d="M52 25H60V35H52V25Z" fill="#1A2332"/>
  <text x="10" y="72" font-family="Arial, sans-serif" font-size="18" font-weight="900" fill="#1A2332" letter-spacing="1">LogiGlobe</text>
  <rect x="10" y="74" width="100" height="2" fill="#E53935"/>
</svg>
